<svg xmlns="http://www.w3.org/2000/svg" width="20" height="20" viewBox="0 0 20 20">
  <path id="Forma_1" data-name="Forma 1" d="M1076.936,181.974a1.242,1.242,0,0,1-.92-.778l-2.513-6.7h-.379a.625.625,0,0,1-.625-.626v-.625h-1.876a.625.625,0,0,1-.625-.625v-3.75a.625.625,0,0,1,.625-.625h1.876v-.626a.625.625,0,0,1,.625-.625h6.228c.217-.01.431-.044.647-.064v7.628c-.214-.021-.427-.054-.642-.064h-1.66l2.1,4.2a1.247,1.247,0,0,1-.229,1.446l-1.5,1.489a1.215,1.215,0,0,1-.879.37A1.25,1.25,0,0,1,1076.936,181.974Zm12.183-2.53c-.019-.009-.033-.025-.052-.036a.6.6,0,0,1-.155-.121c-.006-.007-.015-.01-.021-.016a13.146,13.146,0,0,0-7.642-4.527v-7.988a13.148,13.148,0,0,0,7.642-4.528c.005-.005.013-.006.018-.012a.621.621,0,0,1,.274-.177.461.461,0,0,1,.07-.014.561.561,0,0,1,.122-.025.627.627,0,0,1,.175.035.04.04,0,0,0,.018,0,.042.042,0,0,1,.018,0s.006.006.01.007a.62.62,0,0,1,.262.2.414.414,0,0,1,.04.059.6.6,0,0,1,.1.322v16.249a.6.6,0,0,1-.1.322c-.014.022-.025.039-.04.059a.6.6,0,0,1-.262.2s-.006.006-.01.008a.628.628,0,0,1-.466-.019Z" transform="translate(-1070 -162)" fill="#3fd28b"/>
</svg>
