<svg xmlns="http://www.w3.org/2000/svg" xmlns:xlink="http://www.w3.org/1999/xlink" width="138.502" height="38.141" viewBox="0 0 138.502 38.141">
  <defs>
    <filter id="Path_3795-2" x="31.236" y="8.088" width="107.266" height="30.054" filterUnits="userSpaceOnUse">
      <feOffset dx="-2" dy="4" input="SourceAlpha"/>
      <feGaussianBlur stdDeviation="2" result="blur"/>
      <feFlood flood-opacity="0.239"/>
      <feComposite operator="in" in2="blur"/>
      <feComposite in="SourceGraphic"/>
    </filter>
  </defs>
  <g id="Group_2619" data-name="Group 2619" transform="translate(-0.003 -0.082)">
    <path id="Union_4" data-name="Union 4" d="M16.112,37.679l-.166-.119a3.153,3.153,0,0,1-1.3-1.6,3.523,3.523,0,0,1-.806-.59c-.3-.313-.743-.881-.488-1.352a.76.76,0,0,1,.04-.084,1.581,1.581,0,0,1-.34-.37,1.469,1.469,0,0,1-.26-1.1,9.931,9.931,0,0,0-2.44-3.324h-.022A21.708,21.708,0,0,1,7.2,25.616a12.082,12.082,0,0,1-1.719-3.474,8.719,8.719,0,0,1-.318-3.447,10.088,10.088,0,0,1,1.074-3.452A9.891,9.891,0,0,1,11.609,10.4a9.006,9.006,0,0,1,7.113.418,9.356,9.356,0,0,1,4.776,5.5c1.052,3.372-.116,6.45-1.244,9.422h0c-.081.233-.166.462-.251.682l-.179.462a4.666,4.666,0,0,0-.278,1.836c-.045.092-.094.189-.139.286a.87.87,0,0,1,.586-.154,1.512,1.512,0,0,1,.971.511,2.055,2.055,0,0,1-.04,2.43,2.17,2.17,0,0,1,0,2.157,4.1,4.1,0,0,1-3.644,4.257,5,5,0,0,1-3.133-.546Zm.291-.7c.04,0,.076.057.116.075a4.488,4.488,0,0,0,2.632.414,3.593,3.593,0,0,0,2.3-1.321,2.917,2.917,0,0,0,.6-1.369,10.031,10.031,0,0,1-2.386,1.136,9.137,9.137,0,0,1-2.641.528h-.233a5.64,5.64,0,0,1-1.021-.092h-.049a4.749,4.749,0,0,0,.671.625Zm-2.028-2.2a2.838,2.838,0,0,0,1.343.735,9.011,9.011,0,0,0,6.159-1.576,1.713,1.713,0,0,0,.251-.225,1.2,1.2,0,0,0,.255-1.193,9.815,9.815,0,0,1-7.811,1.994,1.868,1.868,0,0,0-.47-.075,2.608,2.608,0,0,0,.278.352Zm-.815-2.2a.687.687,0,0,0,.134.528c.313.467,1.07.6,1.732.7a8.635,8.635,0,0,0,5.045-1.1,6.993,6.993,0,0,0,1.6-1.079,1.45,1.45,0,0,0,.313-1.761.661.661,0,0,0-.448-.238h-.116c-3.272,3.016-5.551,2.981-7.556,2.937h-.7ZM6.94,15.6c-2.2,4.293-.958,8.409,3.917,12.944l.027.026a10.5,10.5,0,0,1,2.462,3.271,1.155,1.155,0,0,1,.349-.053h.6a11.02,11.02,0,0,0,2.377-.136l-1.15-6.56a4.754,4.754,0,0,1-1.133-.291,2.9,2.9,0,0,1-1.634-2.311,1.546,1.546,0,0,1,.6-1.545,1.181,1.181,0,0,1,1.11-.079c.739.313,1.285,1.352,1.616,3.082l.076.387a3.357,3.357,0,0,0,1.074-.273c0-.136-.058-.295-.076-.471-.175-1.1-.412-2.6.192-3.306a1.118,1.118,0,0,1,.9-.392,1.285,1.285,0,0,1,1.267.977,3.445,3.445,0,0,1-1.15,3.425l-.291.176A31.676,31.676,0,0,0,20.06,30.12c.26-.189.528-.4.8-.625a5.765,5.765,0,0,1,.26-2.888c.027-.066.049-.132.072-.2v-.035c.107-.3.219-.616.345-.92h0c1.124-2.963,2.193-5.785,1.222-8.876a8.546,8.546,0,0,0-4.364-5.037,8.367,8.367,0,0,0-3.747-.881A8.776,8.776,0,0,0,6.94,15.613Zm9.329,9.492,1.146,6.366a9.015,9.015,0,0,0,1.307-.511,7.2,7.2,0,0,0,.662-.374,36.254,36.254,0,0,1-2.068-5.724,4.284,4.284,0,0,1-1.047.255ZM13.811,21.6a.872.872,0,0,0-.273.819,2.117,2.117,0,0,0,1.133,1.664,4.461,4.461,0,0,0,.68.2l-.04-.2c-.367-1.977-.936-2.4-1.146-2.505a.318.318,0,0,0-.179-.04C13.851,21.543,13.771,21.583,13.811,21.6Zm4.114-.8c-.372.44-.139,1.9-.022,2.677,0,.062.022.119.022.181a2.767,2.767,0,0,0,.815-2.527c-.116-.37-.331-.44-.524-.44a.412.412,0,0,0-.291.1Zm-14.709,7.6a.39.39,0,0,1-.013-.3.4.4,0,0,1,.21-.224l2.005-1.035a.391.391,0,0,1,.294-.024.383.383,0,0,1,.225.187h0a.4.4,0,0,1-.179.528L3.739,28.583a.4.4,0,0,1-.175.04.39.39,0,0,1-.349-.216Zm-.228-7.8-2.2-.726a.388.388,0,0,1-.262-.487.4.4,0,0,1,.495-.258h0l2.2.709a.391.391,0,0,1,.263.428.4.4,0,0,1-.379.333.259.259,0,0,1-.116,0Zm23.518-.828a.4.4,0,0,1,.269-.489h0l2.278-.647a.4.4,0,0,1,.483.26h0a.382.382,0,0,1-.031.3.393.393,0,0,1-.237.187h0l-2.278.647a.259.259,0,0,1-.116,0,.379.379,0,0,1-.372-.295ZM4.415,13.742a10.648,10.648,0,0,0-2.726-1.607.394.394,0,0,1-.215-.506.386.386,0,0,1,.207-.211.4.4,0,0,1,.3,0,12.543,12.543,0,0,1,2.981,1.761.379.379,0,0,1,0,.542h0a.371.371,0,0,1-.524.022Zm20.716-.308a.375.375,0,0,1,.116-.52h0l2.337-1.378a.375.375,0,0,1,.51.1v.035a.374.374,0,0,1-.063.52h0L25.7,13.561a.372.372,0,0,1-.292.045.366.366,0,0,1-.231-.182ZM20,8.4a.371.371,0,0,1-.182-.22.364.364,0,0,1,.03-.282V7.868L21.363,5.39a.37.37,0,0,1,.488-.163l.04.026a.371.371,0,0,1,.148.5v.022L20.526,8.265a.368.368,0,0,1-.331.2A.353.353,0,0,1,20,8.406Zm-9.208-.625a17.894,17.894,0,0,1-.8-3.386A.379.379,0,0,1,10.1,4.11a.4.4,0,0,1,.552-.017.376.376,0,0,1,.121.267.026.026,0,0,1,0,.026,17.652,17.652,0,0,0,.761,3.13.39.39,0,0,1-.251.493.259.259,0,0,1-.116,0,.384.384,0,0,1-.372-.273Z" transform="translate(0 -2.187)" stroke="#000" stroke-width="1" opacity="0.24"/>
    <g transform="matrix(1, 0, 0, 1, 0, 0.08)" filter="url(#Path_3795-2)">
      <path id="Path_3795-2-2" data-name="Path 3795-2" d="M103.771,31.688a10.1,10.1,0,0,1-.551,3.4,8.091,8.091,0,0,1-1.58,2.712l1.679,1.6-1.9,1.647-1.791-1.629A8.725,8.725,0,0,1,95.391,40.5a8.461,8.461,0,0,1-4.476-1.145,7.533,7.533,0,0,1-2.883-3.082,10.316,10.316,0,0,1,.049-8.938,7.69,7.69,0,0,1,2.968-3.144A8.7,8.7,0,0,1,95.4,23a8.529,8.529,0,0,1,4.476,1.145,7.532,7.532,0,0,1,2.9,3.117A9.753,9.753,0,0,1,103.771,31.688Zm-8.4,6.137a5.148,5.148,0,0,0,2.055-.44L95.373,35.51l2.207-1.651,1.831,1.761a7.3,7.3,0,0,0,.976-3.962,7.6,7.6,0,0,0-.6-3.082,4.921,4.921,0,0,0-1.732-2.122,4.53,4.53,0,0,0-2.605-.762,4.4,4.4,0,0,0-2.493.753,5.279,5.279,0,0,0-1.831,2.144,7.133,7.133,0,0,0-.689,3.218,7.62,7.62,0,0,0,.613,3.148,4.79,4.79,0,0,0,1.705,2.131A4.563,4.563,0,0,0,95.373,37.825ZM113,36.5a13.546,13.546,0,0,1-1.656,1.021,3.507,3.507,0,0,1-1.607.383,1.527,1.527,0,0,1-1.289-.616A2.817,2.817,0,0,1,108,35.567V28.21h-3.254v7.485a6,6,0,0,0,.927,3.575,3.73,3.73,0,0,0,3.232,1.286,7.076,7.076,0,0,0,2.283-.44,9.768,9.768,0,0,0,2.408-1.233l.533,1.286h2.131V28.21h-3.272Zm5.989-4.843a9.51,9.51,0,0,1,1.705-.555,8.235,8.235,0,0,1,1.826-.233,1.954,1.954,0,0,1,1.419.489,1.984,1.984,0,0,1,.537,1.418h-2.381a5.226,5.226,0,0,0-3.357,1,3.387,3.387,0,0,0-1.253,2.822,3.709,3.709,0,0,0,1.1,2.822,4.6,4.6,0,0,0,3.286,1.048,4.48,4.48,0,0,0,3.209-1.576l.551,1.272h2.126V32.3a3.83,3.83,0,0,0-.716-2.272,4.807,4.807,0,0,0-1.916-1.576,6.187,6.187,0,0,0-2.654-.568,10.737,10.737,0,0,0-2.283.335,6.786,6.786,0,0,0-2.081.753Zm1.28,4.957a1.62,1.62,0,0,1,.488-1.184,1.748,1.748,0,0,1,1.289-.493H124.5v1.827a3.811,3.811,0,0,1-2.686,1.18,1.605,1.605,0,0,1-1.115-.4,1.215,1.215,0,0,1-.434-.96Zm12.207-4.711a13.214,13.214,0,0,1,1.656-1.021,3.448,3.448,0,0,1,1.6-.383,1.527,1.527,0,0,1,1.294.616,2.8,2.8,0,0,1,.448,1.726v7.322h3.263V32.683a6,6,0,0,0-.927-3.575,3.73,3.73,0,0,0-3.232-1.286,7.076,7.076,0,0,0-2.283.44,9.768,9.768,0,0,0-2.408,1.233l-.551-1.286H129.2V40.168h3.259Zm13.46-3.645v-3.43L142.7,25.4v2.835h-1.629V30.7H142.7v5.644a4.033,4.033,0,0,0,1.28,3.179,5.167,5.167,0,0,0,3.559,1.136,4.785,4.785,0,0,0,1.343-.22,3.432,3.432,0,0,0,1.115-.52l-.949-2.316a3.1,3.1,0,0,1-1.343.317,1.573,1.573,0,0,1-1.316-.59,2.454,2.454,0,0,1-.448-1.554V30.7h3.21l-1-2.466Zm12.784,8.26a13.547,13.547,0,0,1-1.656,1.021,3.453,3.453,0,0,1-1.607.383,1.527,1.527,0,0,1-1.289-.616,2.808,2.808,0,0,1-.448-1.726V28.21h-3.259v7.485a5.973,5.973,0,0,0,.931,3.575,3.739,3.739,0,0,0,3.236,1.286,7.1,7.1,0,0,0,2.283-.44,9.817,9.817,0,0,0,2.4-1.233l.533,1.286h2.131V28.21h-3.259Zm19.7-8.678a3.691,3.691,0,0,1,2.995,1.1,4.94,4.94,0,0,1,.9,3.267v7.96h-3.259V32.819a3.343,3.343,0,0,0-.363-1.761,1.251,1.251,0,0,0-1.141-.577,2.812,2.812,0,0,0-1.379.348,17.978,17.978,0,0,0-1.6,1.035v8.3H171.3V32.819a3.43,3.43,0,0,0-.363-1.761,1.255,1.255,0,0,0-1.141-.577,2.789,2.789,0,0,0-1.379.348,17.088,17.088,0,0,0-1.629,1.057v8.282h-3.259V28.21h2.131l.551,1.281a10.515,10.515,0,0,1,2.332-1.233,6.262,6.262,0,0,1,2.1-.44A3.46,3.46,0,0,1,174,29.447a10.761,10.761,0,0,1,2.305-1.193,6.17,6.17,0,0,1,2.086-.44Z" transform="translate(-47.8 -12.91)" fill="#fff"/>
    </g>
    <g id="Illustrated_bulb_svg" data-name="Illustrated bulb svg" transform="translate(1.2 0.082)">
      <g id="Group_1409" data-name="Group 1409" transform="translate(12.735 16.39)">
        <g id="Group_1408" data-name="Group 1408">
          <g id="Group_1407" data-name="Group 1407">
            <path id="Path_3642" data-name="Path 3642" d="M34.462,49.162l.38-.092a9.335,9.335,0,0,0,2.811-1.224l.246-.189-.134-.277a34.172,34.172,0,0,1-2.095-5.724l.282-.167a3.236,3.236,0,0,0,1.115-3.249,1.241,1.241,0,0,0-1.227-.929,1.087,1.087,0,0,0-.85.37c-.586.669-.358,2.1-.192,3.139a2.639,2.639,0,0,0,.076.44,3.362,3.362,0,0,1-1.038.26l-.076-.383c-.318-1.655-.85-2.642-1.567-2.937a1.176,1.176,0,0,0-1.074.075,1.459,1.459,0,0,0-.582,1.466,2.741,2.741,0,0,0,1.585,2.2,4.714,4.714,0,0,0,1.1.277ZM36.955,47.4a7.886,7.886,0,0,1-1.907.832L33.933,42.2a4.252,4.252,0,0,0,1.021-.242,32.492,32.492,0,0,0,2,5.459Zm-5.228-8.563a.259.259,0,0,1,.17.035c.206.092.752.5,1.11,2.377l.04.185a4.349,4.349,0,0,1-.662-.185,2.008,2.008,0,0,1-1.092-1.576.811.811,0,0,1,.264-.779C31.516,38.872,31.6,38.837,31.727,38.837Zm4.1-.784h0a.49.49,0,0,1,.51.409,2.589,2.589,0,0,1-.792,2.4v-.167c-.116-.74-.34-2.135,0-2.54a.385.385,0,0,1,.282-.092Z" transform="translate(-30.508 -37.309)" fill="#fff"/>
          </g>
        </g>
        <g id="Group_1400" data-name="Group 1400" transform="translate(0.045 8.485)">
          <g id="Group_1399" data-name="Group 1399">
            <path id="Path_3638" data-name="Path 3638" d="M33.989,62.084a9.861,9.861,0,0,0,4.4-1.189,7.25,7.25,0,0,0,1.719-1.149,2.018,2.018,0,0,0,.358-2.677,1.49,1.49,0,0,0-.944-.484.841.841,0,0,0-.662.225c-2.932,2.6-4.987,2.6-6.782,2.545H31.5a.826.826,0,0,0-.792.44,1.277,1.277,0,0,0,.17,1.259,3.172,3.172,0,0,0,2.193.986A8.037,8.037,0,0,0,33.989,62.084Zm5.492-4.733h0a.625.625,0,0,1,.416.22c.4.467.094,1.281-.3,1.655a6.808,6.808,0,0,1-1.549,1.021,8.425,8.425,0,0,1-4.893,1.039,2.483,2.483,0,0,1-1.679-.669.652.652,0,0,1-.134-.5h.68c1.943.035,4.154.075,7.323-2.73A.436.436,0,0,1,39.482,57.351Z" transform="translate(-30.609 -56.58)" fill="#f9d217"/>
          </g>
        </g>
        <g id="Group_1402" data-name="Group 1402" transform="translate(0.557 10.831)">
          <g id="Group_1401" data-name="Group 1401">
            <path id="Path_3639" data-name="Path 3639" d="M35.131,66.757h.228a9.721,9.721,0,0,0,5.51-2.1A1.986,1.986,0,0,0,41,62.245l-.224-.335-.322.26a9.266,9.266,0,0,1-7.305,2.06c-.51-.11-1.137-.2-1.343.225s.188.982.47,1.281A4.005,4.005,0,0,0,35.131,66.757Zm5.416-3.734a1.126,1.126,0,0,1-.242,1.127,9.219,9.219,0,0,1-4.969,1.84,3.339,3.339,0,0,1-2.547-.819,2.132,2.132,0,0,1-.264-.335,1.981,1.981,0,0,1,.448.075,9.666,9.666,0,0,0,7.569-1.893Z" transform="translate(-31.752 -61.91)" fill="#f9d217"/>
          </g>
        </g>
        <g id="Group_1404" data-name="Group 1404" transform="translate(1.764 12.632)">
          <g id="Group_1403" data-name="Group 1403">
            <path id="Path_3640" data-name="Path 3640" d="M38.277,70.79a4.632,4.632,0,0,0,.739-.053,4.212,4.212,0,0,0,2.717-1.506,3.918,3.918,0,0,0,.81-2.562L42.494,66l-.568.409a8.7,8.7,0,0,1-6.947,1.673l-.528-.132.058.52c0,.075.112.815,1.285,1.651l.17.11a4.445,4.445,0,0,0,2.314.559Zm3.438-3.324a2.712,2.712,0,0,1-.586,1.321,3.51,3.51,0,0,1-2.238,1.246,4.379,4.379,0,0,1-2.547-.392c-.04,0-.076-.053-.112-.07a4.215,4.215,0,0,1-.64-.616,9.74,9.74,0,0,0,6.137-1.488Z" transform="translate(-34.45 -66)" fill="#f9d217"/>
          </g>
        </g>
      </g>
      <g id="Group_1410" data-name="Group 1410" transform="translate(25.623 15.207)">
        <path id="Path_3643" data-name="Path 3643" d="M59.671,35.956a.241.241,0,0,0,.112,0l2.211-.612a.374.374,0,0,0,.278-.44.385.385,0,0,0-.448-.273H61.8l-2.22.6a.369.369,0,0,0-.269.44h0A.361.361,0,0,0,59.671,35.956Z" transform="translate(-59.298 -34.623)" fill="#fff"/>
      </g>
      <g id="Group_1411" data-name="Group 1411" transform="translate(24.698 7.554)">
        <path id="Path_3644" data-name="Path 3644" d="M57.607,19.278a.39.39,0,0,0,.188-.057l2.265-1.3a.363.363,0,0,0,.137-.5.375.375,0,0,0-.508-.134h0l-2.265,1.321a.354.354,0,0,0-.152.475v.022A.364.364,0,0,0,57.607,19.278Z" transform="translate(-57.232 -17.239)" fill="#fff"/>
      </g>
      <g id="Group_1412" data-name="Group 1412" transform="translate(19.164 1.172)">
        <path id="Path_3645" data-name="Path 3645" d="M45.255,5.819a.35.35,0,0,0,.322-.185L47.027,3.3a.363.363,0,0,0-.13-.5.376.376,0,0,0-.51.128h0L44.928,5.264a.339.339,0,0,0-.051.261.343.343,0,0,0,.154.219h.031A.316.316,0,0,0,45.255,5.819Z" transform="translate(-44.869 -2.743)" fill="#fff"/>
      </g>
      <g id="Group_1413" data-name="Group 1413" transform="translate(9.648)">
        <path id="Path_3646" data-name="Path 3646" d="M24.743,3.89a.241.241,0,0,0,.112,0,.365.365,0,0,0,.246-.44h0A15.949,15.949,0,0,1,24.366.416a.381.381,0,0,0-.756,0h0a16.853,16.853,0,0,0,.774,3.214.375.375,0,0,0,.358.26Z" transform="translate(-23.61 -0.082)" fill="#fff"/>
      </g>
      <g id="Group_1414" data-name="Group 1414" transform="translate(0.904 7.429)">
        <path id="Path_3647" data-name="Path 3647" d="M7.22,19.291a.4.4,0,0,0,.264-.114.357.357,0,0,0,0-.506h0a11.07,11.07,0,0,0-2.892-1.686.377.377,0,0,0-.287,0,.368.368,0,0,0-.2.2.364.364,0,0,0,0,.284.373.373,0,0,0,.205.2h0a10.317,10.317,0,0,1,2.641,1.506A.379.379,0,0,0,7.22,19.291Z" transform="translate(-4.076 -16.956)" fill="#fff"/>
      </g>
      <g id="Group_1415" data-name="Group 1415" transform="translate(0 15.192)">
        <path id="Path_3648" data-name="Path 3648" d="M4.565,36.016a.375.375,0,0,0,.358-.26.36.36,0,0,0-.228-.44h0l-2.153-.709a.377.377,0,0,0-.285.022.367.367,0,0,0-.185.215h0a.36.36,0,0,0,.228.44h0L4.449,36a.218.218,0,0,0,.116.018Z" transform="translate(-2.057 -34.589)" fill="#fff"/>
      </g>
      <g id="Group_1416" data-name="Group 1416" transform="translate(2.589 22.543)">
        <path id="Path_3649" data-name="Path 3649" d="M8.221,53a.454.454,0,0,0,.17-.035l1.947-.986a.371.371,0,0,0,.134-.483A.383.383,0,0,0,10,51.309l-1.947.982a.372.372,0,0,0-.19.214.364.364,0,0,0,.02.284h0A.4.4,0,0,0,8.221,53Z" transform="translate(-7.841 -51.285)" fill="#fff"/>
      </g>
      <path id="Path_3673" data-name="Path 3673" d="M20.973,32.013s1.1,1.761.345,2.364-1.141.471-1.535-.114l-.04-.088-.506-1a8.207,8.207,0,0,0-2.193-2.5L17,30.649A20.928,20.928,0,0,1,13.762,27.5a11.207,11.207,0,0,1-1.88-3.245,7.8,7.8,0,0,1-.448-3.359,9.089,9.089,0,0,1,1-3.377,9.989,9.989,0,0,1,8.577-5.473,10.1,10.1,0,0,1,4.235.775,9.356,9.356,0,0,1,5.161,5.164c1.209,3.218.148,6.115-.9,8.92h0c-.072.216-.152.44-.228.638l-.152.44a3.467,3.467,0,0,0-.125,1.788l.148.766a.726.726,0,0,1,.134.269c.286,1.079-.372,1.616-1.218,1.541s-1.083-2.1-1.083-2.1h-.031l-.058-.44a5.267,5.267,0,0,1,.26-2.47l.072-.211c.1-.291.2-.586.313-.881.994-2.69,1.853-5.019.9-7.533a7.255,7.255,0,0,0-4.029-3.962,7.826,7.826,0,0,0-10.1,3.694c-1.858,3.654-.613,6.943,4.029,10.668a10.226,10.226,0,0,1,2.44,2.668Z" transform="translate(-7.221 -6.774)" fill="#f9d217"/>
    </g>
  </g>
</svg>
