<?xml version="1.0" encoding="utf-8"?><svg version="1.1" id="Layer_1" xmlns="http://www.w3.org/2000/svg" xmlns:xlink="http://www.w3.org/1999/xlink" x="0px" y="0px" width="122.881px" height="122.88px" viewBox="0 0 122.881 122.88" enable-background="new 0 0 122.881 122.88" xml:space="preserve"><g><path fill-rule="evenodd" clip-rule="evenodd" d="M61.44,0c33.933,0,61.441,27.507,61.441,61.439 c0,33.933-27.508,61.44-61.441,61.44C27.508,122.88,0,95.372,0,61.439C0,27.507,27.508,0,61.44,0L61.44,0z M34.106,67.678 l-0.015-0.014c-0.785-0.718-1.207-1.685-1.256-2.669c-0.049-0.982,0.275-1.985,0.984-2.777c0.01-0.011,0.019-0.021,0.029-0.031 c0.717-0.784,1.684-1.207,2.668-1.256c0.989-0.049,1.998,0.28,2.792,0.998l12.956,11.748l31.089-32.559v0 c0.74-0.776,1.723-1.18,2.719-1.204c0.992-0.025,1.994,0.329,2.771,1.067v0.001c0.777,0.739,1.18,1.724,1.205,2.718 c0.025,0.993-0.33,1.997-1.068,2.773L55.279,81.769c-0.023,0.024-0.048,0.047-0.073,0.067c-0.715,0.715-1.649,1.095-2.598,1.13 c-0.974,0.037-1.963-0.293-2.744-1L34.118,67.688L34.106,67.678L34.106,67.678L34.106,67.678z"/></g></svg>