<svg xmlns="http://www.w3.org/2000/svg" width="18" height="19.999" viewBox="0 0 18 19.999">
  <path id="evaluate" d="M19,4H14.8A2.927,2.927,0,0,0,11,2.2,3.187,3.187,0,0,0,9.2,4H5A2.006,2.006,0,0,0,3,6H3V20a2.051,2.051,0,0,0,2,2H19a1.816,1.816,0,0,0,1.4-.6A1.974,1.974,0,0,0,21,20V6A2.006,2.006,0,0,0,19,4Zm-7.7.3a.967.967,0,0,1,1.4,0h0A.908.908,0,0,1,13,5a.908.908,0,0,1-.3.7.967.967,0,0,1-1.4,0h0A.967.967,0,0,1,11.3,4.3Zm4,14.8L12,17,8.7,19.1l.9-3.9L6.7,12.6l3.8-.3L12,8.7l1.5,3.6,3.8.3-2.9,2.6Z" transform="translate(-3 -2.001)" fill="#1f7a54" fill-rule="evenodd"/>
</svg>
