<svg xmlns="http://www.w3.org/2000/svg" width="90.502" height="24.503" viewBox="0 0 90.502 24.503">
  <g id="Group_2619" data-name="Group 2619" transform="translate(-0.003 -0.082)">
    <path id="Union_4" data-name="Union 4" d="M10.988,26.449l-.111-.079A2.105,2.105,0,0,1,10,25.3a2.366,2.366,0,0,1-.541-.393c-.2-.208-.5-.587-.328-.9a.505.505,0,0,1,.027-.056,1.057,1.057,0,0,1-.228-.247.974.974,0,0,1-.174-.734,6.624,6.624,0,0,0-1.639-2.216H7.106A14.508,14.508,0,0,1,5,18.407a8.031,8.031,0,0,1-1.154-2.316,5.772,5.772,0,0,1-.213-2.3,6.865,6.865,0,0,1,4.329-5.53,6.09,6.09,0,0,1,4.777.279,6.252,6.252,0,0,1,3.208,3.669c.707,2.248-.078,4.3-.836,6.281h0c-.054.156-.111.308-.168.455l-.12.308a3.09,3.09,0,0,0-.186,1.224c-.03.062-.063.126-.093.191a.588.588,0,0,1,.394-.1,1.018,1.018,0,0,1,.652.34,1.362,1.362,0,0,1-.027,1.62,1.437,1.437,0,0,1,0,1.438A2.738,2.738,0,0,1,13.116,26.8a3.376,3.376,0,0,1-2.1-.364Zm.2-.47c.027,0,.051.038.078.05a3.034,3.034,0,0,0,1.768.276,2.418,2.418,0,0,0,1.542-.881,1.938,1.938,0,0,0,.406-.913,6.76,6.76,0,0,1-1.6.757,6.177,6.177,0,0,1-1.774.352h-.156a3.816,3.816,0,0,1-.685-.062h-.033a3.18,3.18,0,0,0,.451.417ZM9.821,24.512a1.91,1.91,0,0,0,.9.49,6.086,6.086,0,0,0,4.137-1.051,1.148,1.148,0,0,0,.168-.15.8.8,0,0,0,.171-.8,6.629,6.629,0,0,1-5.246,1.33,1.263,1.263,0,0,0-.316-.05,1.74,1.74,0,0,0,.186.235Zm-.547-1.468a.456.456,0,0,0,.09.352c.21.311.719.4,1.164.47a5.835,5.835,0,0,0,3.388-.731,4.7,4.7,0,0,0,1.073-.719.962.962,0,0,0,.21-1.174.445.445,0,0,0-.3-.158h-.078a6.227,6.227,0,0,1-5.075,1.958H9.274ZM4.827,11.727c-1.476,2.862-.643,5.606,2.631,8.629l.018.018A7,7,0,0,1,9.13,22.554a.781.781,0,0,1,.235-.035H9.77a7.456,7.456,0,0,0,1.6-.091l-.773-4.373a3.212,3.212,0,0,1-.761-.194,1.936,1.936,0,0,1-1.1-1.541,1.027,1.027,0,0,1,.406-1.03.8.8,0,0,1,.746-.053c.5.208.863.9,1.085,2.055l.051.258a2.268,2.268,0,0,0,.722-.182c0-.091-.039-.2-.051-.314-.117-.731-.277-1.735.129-2.2a.754.754,0,0,1,.6-.261.862.862,0,0,1,.851.652,2.287,2.287,0,0,1-.773,2.284l-.2.117a21.013,21.013,0,0,0,1.332,3.769c.174-.126.355-.264.538-.417a3.816,3.816,0,0,1,.174-1.925c.018-.044.033-.088.048-.135v-.023c.072-.2.147-.411.231-.613h0c.755-1.975,1.473-3.857.821-5.917A5.756,5.756,0,0,0,10,8.433a5.9,5.9,0,0,0-5.177,3.3Zm6.265,6.328.77,4.244a6.082,6.082,0,0,0,.878-.34,4.842,4.842,0,0,0,.445-.249A24.054,24.054,0,0,1,11.8,17.893a2.9,2.9,0,0,1-.7.17ZM9.442,15.733a.579.579,0,0,0-.183.546,1.411,1.411,0,0,0,.761,1.109,3.013,3.013,0,0,0,.457.132l-.027-.132c-.247-1.318-.628-1.6-.77-1.67a.215.215,0,0,0-.12-.026C9.469,15.692,9.415,15.718,9.442,15.733Zm2.763-.534c-.25.294-.093,1.265-.015,1.785,0,.041.015.079.015.12a1.836,1.836,0,0,0,.547-1.685c-.078-.247-.222-.294-.352-.294a.278.278,0,0,0-.2.068ZM2.326,20.268a.258.258,0,0,1-.009-.2.267.267,0,0,1,.141-.149l1.347-.69A.264.264,0,0,1,4,19.21a.257.257,0,0,1,.151.125h0a.264.264,0,0,1-.12.352l-1.356.7a.273.273,0,0,1-.117.026.262.262,0,0,1-.235-.144Zm-.153-5.2L.693,14.583a.258.258,0,0,1-.176-.324.267.267,0,0,1,.332-.172h0l1.479.473a.261.261,0,0,1,.177.286.265.265,0,0,1-.255.222.175.175,0,0,1-.078,0Zm15.8-.552a.263.263,0,0,1,.18-.326h0l1.53-.431a.266.266,0,0,1,.325.173h0a.253.253,0,0,1-.021.2.263.263,0,0,1-.159.125h0l-1.53.431a.175.175,0,0,1-.078,0,.254.254,0,0,1-.25-.2ZM3.132,10.491A7.166,7.166,0,0,0,1.3,9.42a.262.262,0,0,1-.144-.338A.258.258,0,0,1,1.3,8.941a.267.267,0,0,1,.2,0,8.44,8.44,0,0,1,2,1.174.251.251,0,0,1,0,.361h0a.251.251,0,0,1-.352.015Zm13.914-.205a.249.249,0,0,1,.078-.346h0l1.569-.919a.253.253,0,0,1,.343.068v.023a.248.248,0,0,1-.042.346h0l-1.569.913a.252.252,0,0,1-.2.03.246.246,0,0,1-.155-.121ZM13.6,6.928a.248.248,0,0,1-.122-.147.241.241,0,0,1,.02-.188V6.575l1.016-1.652a.249.249,0,0,1,.328-.109l.027.018a.246.246,0,0,1,.1.335v.015L13.952,6.84a.247.247,0,0,1-.222.132.239.239,0,0,1-.129-.038ZM7.416,6.511a11.856,11.856,0,0,1-.538-2.257.252.252,0,0,1,.071-.184.269.269,0,0,1,.371-.011.25.25,0,0,1,.081.178.017.017,0,0,1,0,.018,11.7,11.7,0,0,0,.511,2.087.26.26,0,0,1-.168.329.175.175,0,0,1-.078,0,.258.258,0,0,1-.25-.182Z" transform="translate(0 -2.761)" stroke="#000" stroke-width="1" opacity="0.24"/>
    <path id="Path_3795-2" data-name="Path 3795-2" d="M98.276,28.79a6.686,6.686,0,0,1-.37,2.266,5.385,5.385,0,0,1-1.061,1.808l1.127,1.068-1.278,1.1-1.2-1.086a5.9,5.9,0,0,1-2.844.722,5.716,5.716,0,0,1-3.006-.763,5.037,5.037,0,0,1-1.936-2.055,6.831,6.831,0,0,1,.033-5.958,5.143,5.143,0,0,1,1.993-2.1,5.875,5.875,0,0,1,2.919-.8,5.762,5.762,0,0,1,3.006.763A5.036,5.036,0,0,1,97.6,25.837,6.462,6.462,0,0,1,98.276,28.79Zm-5.64,4.092a3.48,3.48,0,0,0,1.38-.294l-1.38-1.25,1.482-1.1,1.23,1.174A4.841,4.841,0,0,0,96,28.77a5.036,5.036,0,0,0-.4-2.055A3.286,3.286,0,0,0,94.437,25.3a3.059,3.059,0,0,0-1.75-.508,2.969,2.969,0,0,0-1.675.5,3.527,3.527,0,0,0-1.23,1.429,4.725,4.725,0,0,0-.463,2.146,5.047,5.047,0,0,0,.412,2.1,3.2,3.2,0,0,0,1.145,1.421A3.082,3.082,0,0,0,92.636,32.882ZM104.472,32a9.11,9.11,0,0,1-1.112.681,2.37,2.37,0,0,1-1.079.255,1.028,1.028,0,0,1-.866-.411,1.867,1.867,0,0,1-.3-1.151v-4.9H98.928v4.99a3.981,3.981,0,0,0,.622,2.383,2.514,2.514,0,0,0,2.171.857,4.784,4.784,0,0,0,1.533-.294,6.579,6.579,0,0,0,1.617-.822l.358.857h1.431V26.471h-2.2Zm4.023-3.229a6.422,6.422,0,0,1,1.145-.37,5.57,5.57,0,0,1,1.227-.156,1.189,1.189,0,0,1,1.314,1.271h-1.6a3.529,3.529,0,0,0-2.255.666,2.251,2.251,0,0,0-.842,1.881,2.463,2.463,0,0,0,.74,1.881,3.107,3.107,0,0,0,2.207.7,3.018,3.018,0,0,0,2.156-1.051l.37.848h1.428V29.2a2.541,2.541,0,0,0-.481-1.515,3.224,3.224,0,0,0-1.287-1.051,4.182,4.182,0,0,0-1.783-.379,7.262,7.262,0,0,0-1.533.223,4.579,4.579,0,0,0-1.4.5Zm.86,3.3a1.076,1.076,0,0,1,.328-.79,1.179,1.179,0,0,1,.866-.329H112.2v1.218a2.569,2.569,0,0,1-1.8.787,1.083,1.083,0,0,1-.749-.264.808.808,0,0,1-.292-.64Zm8.2-3.141a8.887,8.887,0,0,1,1.112-.681A2.33,2.33,0,0,1,119.742,28a1.028,1.028,0,0,1,.869.411,1.859,1.859,0,0,1,.3,1.151v4.881H123.1v-4.99a3.981,3.981,0,0,0-.622-2.383,2.514,2.514,0,0,0-2.171-.857,4.784,4.784,0,0,0-1.533.294,6.579,6.579,0,0,0-1.617.822l-.37-.857h-1.431v7.972h2.189Zm9.04-2.43V24.22l-2.174.379v1.89h-1.094v1.644h1.094V31.9a2.679,2.679,0,0,0,.86,2.119,3.487,3.487,0,0,0,2.39.757,3.236,3.236,0,0,0,.9-.147,2.313,2.313,0,0,0,.749-.346l-.637-1.544a2.1,2.1,0,0,1-.9.211,1.06,1.06,0,0,1-.884-.393,1.627,1.627,0,0,1-.3-1.036V28.133h2.156l-.673-1.644Zm8.586,5.506a9.11,9.11,0,0,1-1.112.681,2.333,2.333,0,0,1-1.079.255,1.028,1.028,0,0,1-.866-.411,1.861,1.861,0,0,1-.3-1.151V26.471h-2.189v4.99a3.96,3.96,0,0,0,.625,2.383,2.52,2.52,0,0,0,2.174.857,4.8,4.8,0,0,0,1.533-.294,6.612,6.612,0,0,0,1.614-.822l.358.857h1.431V26.471H135.18Zm13.228-5.785a2.489,2.489,0,0,1,2.011.731,3.275,3.275,0,0,1,.6,2.178v5.307h-2.189v-4.9a2.215,2.215,0,0,0-.244-1.174.842.842,0,0,0-.767-.385,1.9,1.9,0,0,0-.926.232,12.087,12.087,0,0,0-1.076.69v5.536h-2.189v-4.9a2.272,2.272,0,0,0-.244-1.174.845.845,0,0,0-.767-.385,1.884,1.884,0,0,0-.926.232,11.484,11.484,0,0,0-1.094.7v5.521h-2.189V26.471h1.431l.37.854a7.08,7.08,0,0,1,1.566-.822,4.232,4.232,0,0,1,1.413-.294,2.329,2.329,0,0,1,2.255,1.086A7.247,7.247,0,0,1,147,26.5a4.171,4.171,0,0,1,1.4-.294Z" transform="translate(-60.516 -16.187)" fill="#1f2834"/>
    <g id="Illustrated_bulb_svg" data-name="Illustrated bulb svg" transform="translate(0.972 0.082)">
      <g id="Group_1409" data-name="Group 1409" transform="translate(8.554 10.927)">
        <g id="Group_1408" data-name="Group 1408">
          <g id="Group_1407" data-name="Group 1407">
            <path id="Path_3642" data-name="Path 3642" d="M33.163,45.211l.256-.062a6.294,6.294,0,0,0,1.888-.816l.165-.126-.09-.185a22.676,22.676,0,0,1-1.407-3.816l.189-.112a2.148,2.148,0,0,0,.749-2.166.833.833,0,0,0-.824-.619.732.732,0,0,0-.571.247c-.394.446-.241,1.4-.129,2.093a1.748,1.748,0,0,0,.051.294,2.272,2.272,0,0,1-.7.173l-.051-.255c-.213-1.1-.571-1.761-1.052-1.958a.8.8,0,0,0-.722.05.969.969,0,0,0-.391.977A1.828,1.828,0,0,0,31.591,40.4a3.185,3.185,0,0,0,.737.185Zm1.675-1.174a5.317,5.317,0,0,1-1.281.555l-.749-4.021a2.874,2.874,0,0,0,.685-.161,21.56,21.56,0,0,0,1.344,3.64Zm-3.512-5.709a.175.175,0,0,1,.114.023c.138.062.505.335.746,1.585l.027.123a2.938,2.938,0,0,1-.445-.123,1.339,1.339,0,0,1-.734-1.051.538.538,0,0,1,.177-.52C31.185,38.351,31.239,38.328,31.326,38.328Zm2.751-.522h0a.329.329,0,0,1,.343.273,1.718,1.718,0,0,1-.532,1.6v-.112c-.078-.493-.228-1.424,0-1.694a.26.26,0,0,1,.189-.062Z" transform="translate(-30.508 -37.309)" fill="#f9d217"/>
          </g>
        </g>
        <g id="Group_1400" data-name="Group 1400" transform="translate(0.03 5.656)">
          <g id="Group_1399" data-name="Group 1399">
            <path id="Path_3638" data-name="Path 3638" d="M32.879,60.249a6.661,6.661,0,0,0,2.958-.792,4.872,4.872,0,0,0,1.154-.766,1.338,1.338,0,0,0,.241-1.785,1,1,0,0,0-.634-.323.568.568,0,0,0-.445.15,5.711,5.711,0,0,1-4.555,1.7H31.2a.556.556,0,0,0-.532.294.846.846,0,0,0,.114.839,2.138,2.138,0,0,0,1.473.657A5.437,5.437,0,0,0,32.879,60.249Zm3.689-3.155h0a.421.421,0,0,1,.28.147c.268.311.063.854-.2,1.1a4.576,4.576,0,0,1-1.04.681,5.694,5.694,0,0,1-3.286.693,1.674,1.674,0,0,1-1.127-.446.433.433,0,0,1-.09-.335h.457a6.2,6.2,0,0,0,4.919-1.82A.294.294,0,0,1,36.568,57.094Z" transform="translate(-30.609 -56.58)" fill="#f9d217"/>
          </g>
        </g>
        <g id="Group_1402" data-name="Group 1402" transform="translate(0.374 7.221)">
          <g id="Group_1401" data-name="Group 1401">
            <path id="Path_3639" data-name="Path 3639" d="M34.021,65.142h.153a6.556,6.556,0,0,0,3.7-1.4,1.316,1.316,0,0,0,.09-1.608l-.15-.223-.216.173a6.257,6.257,0,0,1-4.907,1.374c-.343-.073-.764-.135-.9.15s.126.655.316.854A2.7,2.7,0,0,0,34.021,65.142Zm3.638-2.489a.747.747,0,0,1-.162.751,6.218,6.218,0,0,1-3.337,1.227,2.254,2.254,0,0,1-1.711-.546,1.423,1.423,0,0,1-.177-.223,1.34,1.34,0,0,1,.3.05,6.53,6.53,0,0,0,5.084-1.262Z" transform="translate(-31.752 -61.91)" fill="#f9d217"/>
          </g>
        </g>
        <g id="Group_1404" data-name="Group 1404" transform="translate(1.185 8.421)">
          <g id="Group_1403" data-name="Group 1403">
            <path id="Path_3640" data-name="Path 3640" d="M37.021,69.193a3.134,3.134,0,0,0,.5-.035,2.834,2.834,0,0,0,1.825-1,2.6,2.6,0,0,0,.544-1.708L39.853,66l-.382.273A5.875,5.875,0,0,1,34.8,67.388L34.45,67.3l.039.346c0,.05.075.543.863,1.1l.114.073a3,3,0,0,0,1.554.373Zm2.309-2.216a1.8,1.8,0,0,1-.394.881,2.362,2.362,0,0,1-1.5.831,2.961,2.961,0,0,1-1.711-.261c-.027,0-.051-.035-.075-.047a2.822,2.822,0,0,1-.43-.411,6.58,6.58,0,0,0,4.122-.992Z" transform="translate(-34.45 -66)" fill="#f9d217"/>
          </g>
        </g>
      </g>
      <g id="Group_1410" data-name="Group 1410" transform="translate(17.209 10.138)">
        <path id="Path_3643" data-name="Path 3643" d="M59.548,35.511a.163.163,0,0,0,.075,0l1.485-.408a.249.249,0,0,0,.186-.294.259.259,0,0,0-.3-.182h-.018l-1.491.4a.246.246,0,0,0-.18.294h0A.242.242,0,0,0,59.548,35.511Z" transform="translate(-59.298 -34.623)" fill="#f9d217"/>
      </g>
      <g id="Group_1411" data-name="Group 1411" transform="translate(16.588 5.036)">
        <path id="Path_3644" data-name="Path 3644" d="M57.484,18.6a.263.263,0,0,0,.126-.038l1.521-.866a.241.241,0,0,0,.092-.333.253.253,0,0,0-.341-.09h0l-1.521.881a.235.235,0,0,0-.1.317v.015A.245.245,0,0,0,57.484,18.6Z" transform="translate(-57.232 -17.239)" fill="#f9d217"/>
      </g>
      <g id="Group_1412" data-name="Group 1412" transform="translate(12.871 0.781)">
        <path id="Path_3645" data-name="Path 3645" d="M45.128,4.794a.235.235,0,0,0,.216-.123l.974-1.559a.241.241,0,0,0-.087-.335.254.254,0,0,0-.343.085h0l-.98,1.561a.224.224,0,0,0-.034.174.229.229,0,0,0,.1.146H45A.213.213,0,0,0,45.128,4.794Z" transform="translate(-44.869 -2.743)" fill="#f9d217"/>
      </g>
      <g id="Group_1413" data-name="Group 1413" transform="translate(6.48)">
        <path id="Path_3646" data-name="Path 3646" d="M24.371,2.62a.163.163,0,0,0,.075,0,.243.243,0,0,0,.165-.294h0A10.567,10.567,0,0,1,24.118.3a.256.256,0,0,0-.508,0h0a11.166,11.166,0,0,0,.52,2.143.252.252,0,0,0,.241.173Z" transform="translate(-23.61 -0.082)" fill="#f9d217"/>
      </g>
      <g id="Group_1414" data-name="Group 1414" transform="translate(0.607 4.953)">
        <path id="Path_3647" data-name="Path 3647" d="M6.188,18.513a.271.271,0,0,0,.177-.076.237.237,0,0,0,0-.338h0a7.45,7.45,0,0,0-1.942-1.124.255.255,0,0,0-.193,0,.246.246,0,0,0-.135.135.241.241,0,0,0,0,.19.25.25,0,0,0,.138.133h0a6.944,6.944,0,0,1,1.774,1A.255.255,0,0,0,6.188,18.513Z" transform="translate(-4.076 -16.956)" fill="#f9d217"/>
      </g>
      <g id="Group_1415" data-name="Group 1415" transform="translate(0 10.128)">
        <path id="Path_3648" data-name="Path 3648" d="M3.742,35.54a.252.252,0,0,0,.241-.173.239.239,0,0,0-.153-.294h0L2.383,34.6a.255.255,0,0,0-.192.015.245.245,0,0,0-.124.144h0a.239.239,0,0,0,.153.294h0l1.443.475a.147.147,0,0,0,.078.012Z" transform="translate(-2.057 -34.589)" fill="#f9d217"/>
      </g>
      <g id="Group_1416" data-name="Group 1416" transform="translate(1.739 15.029)">
        <path id="Path_3649" data-name="Path 3649" d="M8.1,52.425A.307.307,0,0,0,8.21,52.4l1.308-.657a.246.246,0,0,0,.09-.322A.258.258,0,0,0,9.29,51.3l-1.308.655a.248.248,0,0,0-.128.143.241.241,0,0,0,.014.189h0A.265.265,0,0,0,8.1,52.425Z" transform="translate(-7.841 -51.285)" fill="#f9d217"/>
      </g>
      <path id="Path_3673" data-name="Path 3673" d="M17.831,25.355s.737,1.174.231,1.576-.767.314-1.031-.076L17,26.8l-.34-.663a5.484,5.484,0,0,0-1.473-1.664l-.027-.023a14.009,14.009,0,0,1-2.177-2.1,7.458,7.458,0,0,1-1.263-2.163,5.167,5.167,0,0,1-.3-2.24,6.026,6.026,0,0,1,.673-2.251,6.721,6.721,0,0,1,5.76-3.648,6.829,6.829,0,0,1,2.844.517A6.261,6.261,0,0,1,24.169,16c.812,2.146.1,4.077-.6,5.947h0c-.048.144-.1.294-.153.426l-.1.294a2.3,2.3,0,0,0-.084,1.192l.1.511a.483.483,0,0,1,.09.179c.192.719-.25,1.077-.818,1.027s-.728-1.4-.728-1.4h-.021l-.039-.294a3.487,3.487,0,0,1,.174-1.647l.048-.141c.066-.194.135-.39.21-.587.667-1.793,1.245-3.346.6-5.022a4.856,4.856,0,0,0-2.706-2.642,5.274,5.274,0,0,0-6.786,2.463c-1.248,2.436-.412,4.629,2.706,7.112A6.836,6.836,0,0,1,17.7,25.2Z" transform="translate(-8.595 -8.528)" fill="#f9d217"/>
    </g>
  </g>
</svg>
