<svg id="group_1_" data-name="group (1)" xmlns="http://www.w3.org/2000/svg" width="32" height="32" viewBox="0 0 32 32">
  <path id="Path_3676" data-name="Path 3676" d="M0,0H32V32H0Z" fill="none"/>
  <path id="Path_3677" data-name="Path 3677" d="M21,13a4,4,0,1,0-4-4A3.983,3.983,0,0,0,21,13ZM10.333,13a4,4,0,1,0-4-4A3.983,3.983,0,0,0,10.333,13Zm0,2.667C7.227,15.667,1,17.227,1,20.333v3.333H19.667V20.333C19.667,17.227,13.44,15.667,10.333,15.667Zm10.667,0c-.387,0-.827.027-1.293.067a5.627,5.627,0,0,1,2.627,4.6v3.333h8V20.333C30.333,17.227,24.107,15.667,21,15.667Z" transform="translate(0.333 1.667)"/>
</svg>
